# Blender v2.77 (sub 0) OBJ File: ''
# www.blender.org
mtllib Square Fruit.mtl
o Mesh_0139
v 1.023442 0.375300 0.995750
v 1.023442 1.806402 0.995751
v 1.023442 0.375301 -0.987892
v 1.023442 1.806403 -0.987892
v 0.648942 1.806403 -0.987892
v 0.648942 2.181003 -0.987892
v -0.782258 1.806403 -0.987892
v -0.782258 2.181003 -0.987892
v -1.156758 1.806403 -0.987892
v -1.156758 1.806402 0.995751
v -1.156758 0.375300 0.995750
v -0.782258 1.806402 0.995751
v -0.782258 0.375300 0.995750
v 0.648942 0.375300 0.995750
v 0.648942 0.000700 0.995750
v 0.648942 0.000700 -0.987892
v -0.782258 0.375301 -0.987892
v 0.648942 0.375301 -0.987892
v -0.782258 0.000700 -0.987892
v -1.156758 0.375301 -0.987892
v -0.782258 0.000700 0.995750
v 0.648942 2.181003 0.995751
v -0.782258 2.181003 0.995751
v 0.648942 1.806402 0.995751
v 0.146042 2.962804 0.003930
v -0.089958 3.024304 0.003930
v -0.081958 1.994703 0.003929
v 0.885742 2.321603 0.995751
v 0.578242 2.798204 0.003929
v 0.155742 2.535603 0.995751
v 0.005942 2.565703 0.003929
vt 0.0000 -0.0547
vt 1.0000 0.0000
vt 1.0000 -0.9961
vt 0.5117 0.0000
vt 0.9844 -0.6055
vt 0.0156 -0.6055
vt 0.5195 -0.9883
vt 0.1094 -0.8477
vt 0.8906 -0.8477
vt 0.1094 -0.1445
vt 0.8906 -0.1445
vt 1.1094 -0.1445
vt 1.0000 -0.0273
vt 1.8906 -0.1445
vt 2.0000 -0.0273
vt 2.1094 -0.1445
vt 2.8906 -0.1445
vt 2.8906 -0.8477
vt 3.1094 -0.1445
vt 3.1094 -0.8477
vt 3.8906 -0.8477
vt 4.0000 -0.9648
vt 4.1094 -0.8477
vt 5.0000 -0.9648
vt 4.8906 -0.8477
vt 1.1094 -0.8477
vt 1.8906 -0.8477
vt 2.0000 -0.9648
vt 1.0000 -0.9648
vt 2.1094 -0.8477
vt 3.0000 -0.9648
vt 2.1445 -0.9844
vt 2.1328 -0.9648
vt 2.4102 -0.9844
vt 2.4102 -0.9648
vt 3.8164 -0.0234
vt 3.3516 -0.0234
vt 3.7930 -0.0117
vt 3.3516 -0.0117
vt 4.1094 -0.1445
vt 3.8906 -0.1445
vt 3.0000 -0.0273
vt 5.0000 -0.0273
vt 4.0000 -0.0273
vt 4.8906 -0.1445
vn -0.0000 -0.0000 1.0000
vn 0.2635 0.8988 0.3502
vn -0.3750 0.9231 0.0847
vn -0.3752 0.9230 0.0849
vn -0.3750 0.9231 0.0850
vn 0.5547 -0.0000 0.8321
vn 0.9870 0.0941 0.1304
vn 0.3679 0.0173 0.9297
vn 1.0000 -0.0000 0.0000
vn 0.9870 0.1220 0.1047
vn 0.7071 -0.7071 0.0000
vn 0.7559 -0.3014 -0.5812
vn 0.0000 0.0000 -1.0000
vn 0.0000 -0.7071 -0.7071
vn 0.6322 0.6324 -0.4476
vn 0.2972 0.7173 -0.6302
vn 0.0000 0.7071 -0.7071
vn 0.3692 0.8919 -0.2612
vn -0.7072 0.7070 -0.0004
vn -0.4461 0.8154 0.3688
vn 0.0692 0.7159 -0.6947
vn -0.8918 -0.1096 0.4389
vn -0.0002 0.7587 -0.6514
vn -0.8125 -0.4760 -0.3365
vn -0.4048 -0.3136 0.8589
vn 0.1515 0.5795 0.8008
vn 0.1807 -0.9778 -0.1059
vn 0.2971 -0.7174 -0.6302
vn -0.3927 -0.3922 -0.8318
vn 0.7072 -0.7070 -0.0000
vn 0.0000 -0.5547 -0.8320
vn 0.1486 0.4898 -0.8591
vn -0.0001 -0.7587 0.6514
vn -0.8125 0.4760 0.3365
vn -0.8918 0.1096 -0.4389
vn -0.9417 0.2140 -0.2595
vn -0.9989 -0.0012 -0.0472
vn -0.4461 -0.8154 -0.3688
vn 0.3692 -0.8919 0.2612
vn 0.0000 -0.7071 0.7071
vn 0.0000 0.7071 0.7071
vn -0.0754 0.5552 0.8283
vn -0.7069 -0.7074 -0.0000
vn -0.4235 0.4236 0.8008
vn -0.4232 0.4237 0.8009
vn 0.9987 0.0013 -0.0515
vn 0.3163 0.9487 0.0006
usemtl Tex_0077_0_png
s 1
f 25/1/1 26/2/1 27/3/1
usemtl Tex_0076_0_png
f 28/4/2 29/5/2 30/6/2
f 29/5/3 31/7/4 30/6/5
usemtl Tex_0079_0_png
f 1/8/6 3/9/7 2/10/8
f 2/10/9 3/9/10 4/11/11
f 3/9/12 5/12/13 4/11/14
f 4/11/15 5/12/13 6/13/16
f 5/12/13 7/14/13 6/13/16
f 6/13/16 7/14/13 8/15/17
f 7/14/13 9/16/18 8/15/13
f 8/15/19 9/16/20 10/17/21
f 9/16/22 11/18/23 10/17/24
f 10/17/25 11/18/1 12/19/1
f 11/18/1 13/20/1 12/19/1
f 12/19/1 13/20/1 14/21/1
f 13/20/1 15/22/26 14/21/1
f 14/21/1 15/22/26 1/23/6
f 15/22/27 16/24/28 1/23/29
f 1/23/30 16/24/28 3/25/12
f 5/12/13 18/26/13 17/27/13
f 17/27/13 18/26/13 19/28/31
f 18/26/13 16/29/28 19/28/31
f 5/12/13 17/27/13 7/14/13
f 7/14/13 17/27/13 9/16/13
f 17/27/13 20/30/32 9/16/13
f 9/16/33 20/30/34 11/18/35
f 20/30/36 21/31/37 11/18/38
f 11/18/39 21/31/1 13/20/1
f 21/31/40 15/22/27 13/20/1
f 21/32/40 19/33/31 15/34/27
f 19/33/31 16/35/28 15/34/27
f 22/36/41 6/37/16 23/38/42
f 6/37/16 8/39/17 23/38/42
f 21/31/37 20/30/36 19/28/43
f 20/30/32 17/27/13 19/28/31
f 1/23/6 2/40/8 14/21/1
f 2/40/8 24/41/1 14/21/1
f 14/21/1 24/41/1 12/19/1
f 24/41/1 23/42/42 12/19/1
f 12/19/1 23/42/44 10/17/25
f 23/42/45 8/15/19 10/17/21
f 6/43/16 22/44/46 4/45/15
f 4/45/15 22/44/46 2/40/47
f 2/40/8 22/44/1 24/41/1
f 22/44/41 23/42/42 24/41/1
f 5/12/13 3/9/12 18/26/13
f 3/9/12 16/29/28 18/26/13
